PathFileType	4	(X/Y/Z)	..\data\2014029\dynamic\2014029_C4_05.trc
DataRate	CameraRate	NumFrames	NumMarkers	Units	OrigDataRate	OrigDataStartFrame	OrigNumFrames
100.000000	100.000000	4	52	mm	100.000000	169	194
Frame#	Time	L_IAS			L_IPS			R_IPS			R_IAS			L_FTC			L_FLE			L_FME			L_FAX			L_TTC			L_FAL			L_TAM			L_FCC			L_FM1			L_FM2			L_FM5			R_FTC			R_FLE			R_FME			R_FAX			R_TTC			R_FAL			R_TAM			R_FCC			R_FM1			R_FM2			R_FM5			CV7			TV10			SXS			SJN			L_SIA			L_SRS			L_SAA			L_SAE			L_HLE			L_HME			L_UOA			L_RSP			L_UHE			L_HM2			L_HM5			R_SIA			R_SRS			R_SAA			R_SAE			R_HLE			R_HME			R_UOA			R_RSP			R_UHE			R_HM2			R_HM5			
		X1	Y1	Z1	X2	Y2	Z2	X3	Y3	Z3	X4	Y4	Z4	X5	Y5	Z5	X6	Y6	Z6	X7	Y7	Z7	X8	Y8	Z8	X9	Y9	Z9	X10	Y10	Z10	X11	Y11	Z11	X12	Y12	Z12	X13	Y13	Z13	X14	Y14	Z14	X15	Y15	Z15	X16	Y16	Z16	X17	Y17	Z17	X18	Y18	Z18	X19	Y19	Z19	X20	Y20	Z20	X21	Y21	Z21	X22	Y22	Z22	X23	Y23	Z23	X24	Y24	Z24	X25	Y25	Z25	X26	Y26	Z26	X27	Y27	Z27	X28	Y28	Z28	X29	Y29	Z29	X30	Y30	Z30	X31	Y31	Z31	X32	Y32	Z32	X33	Y33	Z33	X34	Y34	Z34	X35	Y35	Z35	X36	Y36	Z36	X37	Y37	Z37	X38	Y38	Z38	X39	Y39	Z39	X40	Y40	Z40	X41	Y41	Z41	X42	Y42	Z42	X43	Y43	Z43	X44	Y44	Z44	X45	Y45	Z45	X46	Y46	Z46	X47	Y47	Z47	X48	Y48	Z48	X49	Y49	Z49	X50	Y50	Z50	X51	Y51	Z51	X52	Y52	Z52	

170	1.69	1659.537231445313	1055.032958984375	-381.1649780273438	1450.051879882813	1049.794799804688	-310.8121948242188	1445.27392578125	1046.256103515625	-209.9259643554688	1645.968505859375	1066.343017578125	-132.1089172363282	1575.674560546875	958.8754882812502	-448.1416015625001	1532.54833984375	512.5693359375001	-397.132293701172	1519.865844726563	494.9696655273439	-271.7713623046876	1510.099609375	447.1905212402345	-402.3927612304689	1569.870849609375	438.758026123047	-333.8653869628907	1456.271118164063	78.48927307128908	-352.1930541992188	1483.623901367188	93.17190551757814	-251.9988861083985	1404.084716796875	21.56654930114746	-308.5290832519532	1626.523559570313	18.57390975952149	-274.0977478027344	1619.682495117188	36.43347167968751	-329.7032470703126	1562.64453125	15.3199462890625	-385.145721435547	1552.947387695313	950.9436645507815	-70.73170471191408	1753.6162109375	542.9725341796876	-83.99832153320314	1763.619506835938	515.7044677734376	-210.0902404785157	1724.309204101563	481.8133544921876	-78.80427551269533	1804.135864257813	465.8208312988282	-132.9358367919922	1619.621704101563	124.3974227905274	-113.0872497558594	1658.98779296875	125.3236618041992	-208.1876678466797	1562.677368164063	73.14169311523439	-165.6434783935547	1771.003784179688	33.11130142211915	-176.1289367675782	1759.466064453125	50.72697067260744	-122.9796447753907	1727.212524414063	40.28408813476563	-79.04199218750001	1521.538940429688	1587.586669921875	-288.4270019531251	1435.364501953125	1321.98095703125	-277.4989929199219	1688.811401367188	1297.945922851563	-262.7745666503907	1649.509643554688	1490.614135742188	-272.6772460937501	1419.785034179688	1357.076904296875	-383.9467468261719	1463.032958984375	1508.497192382813	-391.5259094238282	1521.412109375	1502.978881835938	-499.1654663085939	1578.245239257813	1505.429443359375	-499.2151489257814	1631.7802734375	1158.91357421875	-593.7510375976564	1600.699951171875	1138.655517578125	-503.0161132812501	1596.296875	1126.649291992188	-550.8560180664064	1838.093872070313	953.7427368164065	-556.9526367187501	1771.969848632813	932.994812011719	-612.9985961914064	1897.998046875	895.0491943359377	-554.0412597656251	1816.067138671875	857.2505493164065	-623.7124023437501	1405.888427734375	1363.034545898438	-193.0034332275391	1447.270751953125	1510.4365234375	-192.2368469238282	1481.631469726563	1517.698974609375	-81.74904632568361	1529.207763671875	1525.003784179688	-62.03969955444337	1459.462280273438	1178.3125	8.136784553527834	1457.888549804688	1159.075439453125	-83.85845947265626	1434.82666015625	1158.229125976563	-28.41819190979005	1587.960205078125	916.7964477539065	22.23657989501953	1497.070434570313	918.4462890625002	45.72918701171876	1618.56201171875	830.3013305664065	33.68656539916993	1501.177001953125	828.8208007812502	55.06297683715822	
171	1.7	1669.224731445313	1053.602905273438	-381.4748840332032	1460.001953125	1048.850830078125	-310.4644775390626	1455.528076171875	1045.2529296875	-209.6405029296876	1656.429077148438	1065.3623046875	-132.3571472167969	1584.60546875	957.777770996094	-448.2700500488282	1537.329467773438	512.0490112304689	-396.8238525390626	1524.72900390625	494.6439819335939	-271.5534667968751	1514.248779296875	446.9232482910157	-402.1002197265626	1573.9765625	437.7483215332032	-333.6632995605469	1456.7646484375	78.69521331787111	-351.8793334960938	1484.16455078125	93.08199310302736	-251.6322479248047	1404.17236328125	21.92252731323243	-308.2630310058594	1626.679809570313	18.42215156555176	-274.0589599609376	1619.799072265625	36.32221221923829	-329.6617126464844	1562.70068359375	15.44031715393067	-385.0216674804689	1563.2421875	949.8911132812502	-70.96267700195314	1764.90234375	541.9295654296876	-83.86490631103517	1774.844116210938	514.4894409179689	-210.1331939697266	1737.980712890625	479.1879882812501	-78.79013061523439	1818.332153320313	466.7497863769532	-132.8624114990235	1655.447875976563	116.0918502807617	-112.2187805175782	1694.661743164063	119.1386947631836	-207.519760131836	1601.835205078125	61.39309310913087	-164.8218688964844	1812.453247070313	33.83649826049805	-174.851318359375	1799.5908203125	50.67868041992189	-121.7816848754883	1767.840209960938	38.66880416870118	-77.84704589843751	1531.804931640625	1586.460693359375	-287.9050903320313	1445.408081054688	1321.007568359375	-277.4628295898438	1699.010986328125	1296.77783203125	-262.9490356445313	1659.800537109375	1489.433471679688	-272.3522949218751	1430.26953125	1356.331909179688	-384.3303222656251	1473.394775390625	1507.703002929688	-391.4072570800782	1532.113403320313	1502.587280273438	-498.9584045410157	1588.808471679688	1505.157104492188	-498.8568420410157	1645.988525390625	1159.434936523438	-594.0230102539064	1614.5634765625	1138.635131835938	-503.5840454101564	1610.671997070313	1126.355102539063	-551.5247192382814	1856.500610351563	958.7991333007815	-555.3028564453126	1791.22998046875	936.3172607421877	-611.6746826171876	1917.762817382813	901.5820312500002	-551.8056030273439	1837.190185546875	861.5699462890627	-621.7653808593751	1416.052612304688	1361.731689453125	-193.146713256836	1457.455200195313	1509.078735351563	-191.9884338378907	1491.698364257813	1516.02197265625	-81.48902893066408	1538.89111328125	1523.477783203125	-61.85801696777345	1469.094116210938	1176.530151367188	7.460353374481203	1467.898071289063	1157.493774414063	-84.60913085937501	1444.652465820313	1156.509033203125	-29.28396797180176	1597.551147460938	915.057556152344	22.18567276000977	1506.664794921875	916.4727172851565	44.67891693115235	1628.045532226563	828.5035400390627	33.68474197387696	1510.332153320313	826.9004516601565	53.53391647338869	
172	1.71	1678.993041992188	1052.098022460938	-381.7340393066407	1470.034057617188	1047.78076171875	-310.0804443359376	1465.870727539063	1044.109619140625	-209.3128509521485	1666.965209960938	1064.211181640625	-132.5449676513672	1593.607788085938	956.623962402344	-448.3747863769532	1542.065795898438	511.5162353515626	-396.5357360839845	1529.568603515625	494.283660888672	-271.3381042480469	1518.349731445313	446.6437988281251	-401.811004638672	1578.062255859375	436.6900329589845	-333.4728088378907	1457.242797851563	78.9279022216797	-351.5173950195313	1484.72998046875	93.03884124755861	-251.2502746582032	1404.2783203125	22.31248474121094	-307.9359741210938	1626.833862304688	18.27091979980469	-274.0163269042969	1619.906494140625	36.20779418945313	-329.6213989257813	1562.73681640625	15.58005809783936	-384.8815917968751	1573.514404296875	948.6282958984377	-71.16625976562501	1775.471313476563	540.4754638671876	-83.60550689697267	1785.359375	512.8825683593751	-210.0540771484376	1751.12060546875	476.3067321777345	-78.6721649169922	1831.754150390625	467.4353942871095	-132.7003021240235	1691.376708984375	108.8404083251953	-111.3384246826172	1730.137939453125	114.0503540039063	-206.8346405029297	1641.206787109375	50.97712326049806	-163.9033660888672	1853.260498046875	35.7195053100586	-174.0917205810547	1839.3408203125	51.65940475463869	-121.0334930419922	1808.268188476563	38.04975509643555	-77.0399856567383	1542.11474609375	1585.198486328125	-287.3187561035157	1455.454467773438	1319.929565429688	-277.3603515625001	1709.272216796875	1295.484985351563	-263.0624694824219	1670.149169921875	1488.109375	-271.9566040039063	1440.767822265625	1355.453979492188	-384.5942687988282	1483.790893554688	1506.783813476563	-391.1992187500001	1542.831176757813	1502.0498046875	-498.6663513183595	1599.400634765625	1504.723510742188	-498.421356201172	1660.0302734375	1159.819702148438	-594.1958618164064	1628.174194335938	1138.471557617188	-504.083709716797	1624.805297851563	1125.9453125	-552.1196289062501	1874.447875976563	963.672302246094	-553.4866943359376	1810.078002929688	939.5323486328127	-610.2233886718751	1937.008056640625	907.9615478515627	-549.4223022460939	1857.84619140625	865.8215942382815	-619.6978149414064	1426.277221679688	1360.322875976563	-193.2134857177735	1467.707763671875	1507.602783203125	-191.6453247070313	1501.858032226563	1514.22607421875	-81.14341735839845	1548.792846679688	1521.800415039063	-61.57388305664064	1478.884155273438	1174.628051757813	6.903392791748049	1478.030151367188	1155.778686523438	-85.22789001464845	1454.607788085938	1154.67138671875	-30.01066207885743	1607.297973632813	913.1815185546877	22.001859664917	1516.509033203125	914.3909912109377	43.73824310302735	1637.651000976563	826.5346679687502	33.40911865234376	1519.70751953125	824.8656005859377	52.10020446777345	
173	1.72	1688.841796875	1050.52734375	-381.9501647949219	1480.151245117188	1046.580932617188	-309.6509704589844	1476.306640625	1042.826782226563	-208.9342041015626	1677.59130859375	1062.88330078125	-132.6829528808594	1602.677856445313	955.416442871094	-448.455047607422	1546.8017578125	510.9739379882814	-396.2630004882814	1534.443725585938	493.891082763672	-271.1191101074219	1522.445068359375	446.3553771972657	-401.5163574218751	1582.171264648438	435.5846252441407	-333.2882690429688	1457.709838867188	79.1979217529297	-351.0948486328126	1485.3369140625	93.05511474609376	-250.8470611572266	1404.409057617188	22.75113105773926	-307.5325317382813	1626.987426757813	18.12443923950196	-273.9704589843751	1620.00439453125	36.09028244018555	-329.5823669433594	1562.749877929688	15.74172496795655	-384.717010498047	1583.800048828125	947.167419433594	-71.32997131347658	1785.422485351563	538.6479492187501	-83.23989868164064	1795.264770507813	510.925506591797	-209.8686218261719	1763.7998046875	473.2274169921876	-78.45729064941408	1844.475830078125	467.9036865234376	-132.4609527587891	1727.16015625	102.7458648681641	-110.4426803588867	1765.176635742188	110.1283950805664	-206.1161651611329	1680.480590820313	42.02718734741212	-162.8845672607422	1893.1328125	38.75498580932618	-173.888656616211	1878.4658203125	53.66741180419923	-120.7641754150391	1848.253784179688	38.42716217041016	-76.65224456787111	1552.4794921875	1583.8046875	-286.6650085449219	1465.510009765625	1318.748901367188	-277.1855468750001	1719.601928710938	1294.07080078125	-263.1113281250001	1680.559936523438	1486.64111328125	-271.4761962890626	1451.284790039063	1354.442504882813	-384.7312011718751	1494.228271484375	1505.74072265625	-390.8970642089845	1553.5673828125	1501.3642578125	-498.2878723144532	1610.033813476563	1504.125732421875	-497.9017333984376	1673.907104492188	1160.058837890625	-594.2670288085939	1641.545043945313	1138.154174804688	-504.5138244628907	1638.703369140625	1125.414306640625	-552.6376342773439	1891.9267578125	968.3261718750002	-551.5103149414064	1828.509399414063	942.619323730469	-608.6552734375001	1955.725219726563	914.1458129882815	-546.9007568359376	1878.023803710938	869.978698730469	-617.5300292968751	1436.567016601563	1358.814208984375	-193.2041473388672	1478.036865234375	1506.010620117188	-191.2060241699219	1512.116577148438	1512.317504882813	-80.71038818359376	1558.920532226563	1519.97705078125	-61.18050765991212	1488.831420898438	1172.60888671875	6.466559410095217	1488.279663085938	1153.936889648438	-85.71570587158205	1464.692626953125	1152.719482421875	-30.59617424011231	1617.206909179688	911.1741333007815	21.68424415588379	1526.583374023438	912.208679199219	42.90884017944337	1647.401489257813	824.412292480469	32.87334442138673	1529.316650390625	822.7234497070315	50.7904739379883	
